<?xml version="1.0" encoding="utf-8"?>
<!-- Generator: Adobe Illustrator 18.0.0, SVG Export Plug-In . SVG Version: 6.00 Build 0)  -->
<!DOCTYPE svg PUBLIC "-//W3C//DTD SVG 1.1//EN" "http://www.w3.org/Graphics/SVG/1.1/DTD/svg11.dtd">
<svg version="1.1" id="Layer_1" xmlns="http://www.w3.org/2000/svg" xmlns:xlink="http://www.w3.org/1999/xlink" x="0px" y="0px"
	 viewBox="0 0 531 92" enable-background="new 0 0 531 92" xml:space="preserve">
<g>
	<circle fill-rule="evenodd" clip-rule="evenodd" fill="#E81337" cx="45.9" cy="45.7" r="41.4"/>
	<path fill-rule="evenodd" clip-rule="evenodd" fill="#9F9FA0" d="M453,28.2c4.7,0,8.2,1.7,10.4,5.1c0.3,0.4,0.6,0.4,0.7,0
		c1.8-3.4,5.2-5.1,10.4-5.1c5.4,0,9.1,1.3,11.1,3.9c1.6,2.2,2.5,5.8,2.5,10.9V69c0,0.7-0.4,1-1.1,1h-6.9c-0.8,0-1.2-0.3-1.2-1V44
		c0-3.2-0.3-5.3-1-6.2c-0.6-0.8-2-1.2-4.2-1.2s-3.7,0.4-4.3,1.2c-0.6,0.9-1,3-1,6.2v25.2c0,0.1,0,0.1-0.1,0.1v0.2c0,0,0,0.1,0,0.2
		l-0.7,0.4h-7.1c-0.8,0-1.2-0.3-1.2-1V44c0-3.2-0.3-5.3-1-6.2c-0.6-0.8-2-1.2-4.2-1.2c-2.3,0-3.7,0.4-4.4,1.2
		c-0.6,0.9-0.9,3-0.9,6.2V69c0,0.7-0.4,1-1.2,1h-6.9c-0.8,0-1.2-0.3-1.2-1V43c0-5.1,0.8-8.7,2.5-10.9C444,29.5,447.7,28.2,453,28.2z
		"/>
	<path fill-rule="evenodd" clip-rule="evenodd" fill="#9F9FA0" d="M496.6,40.6c-1.4-1.6-2.1-4-2.1-7.2v-3.7c0-0.6,0.3-0.9,1-0.9h7.4
		c0.6,0,0.9,0.3,0.9,0.9V33c0,1.2,0.2,2,0.7,2.6l5.2,7.2l1.1,0.8h0.2c0.4,0,0.8-0.3,1.2-0.8l5.1-7.2c0.5-0.8,0.8-1.7,0.8-2.6v-3.3
		c0-0.6,0.3-0.9,0.8-0.9h7.4c0.6,0,0.8,0.3,0.8,0.9v3.7c0,3.2-0.7,5.6-2.1,7.2l-6.7,7.8l-0.4,0.7l0.4,0.7l6.7,7.7
		c1.4,1.6,2.1,4,2.1,7.2v4.5c0,0.6-0.3,1-0.8,1h-7.4c-0.6,0-0.8-0.3-0.8-1v-4.2c0-0.9-0.3-1.7-0.8-2.5l-5.1-7.2
		c-0.5-0.6-0.8-0.9-1.1-1h-0.2c-0.3,0-0.8,0.3-1.3,1l-5.2,7.2c-0.5,0.6-0.7,1.5-0.7,2.5v4.2c0,0.6-0.3,1-0.9,1h-7.4
		c-0.6,0-1-0.3-1-1v-4.5c0-3.2,0.7-5.6,2.1-7.2l6.7-7.7l0.3-0.7c0-0.1-0.1-0.3-0.2-0.6L496.6,40.6z"/>
	<path fill-rule="evenodd" clip-rule="evenodd" fill="#7D7D7D" d="M375.1,37.8c-0.9-1.4-2.8-2-5.6-2c-2.9,0-4.8,0.7-5.8,2
		c-1.2,1.5-1.7,4.6-1.7,9.2c0,4.6,0.6,7.6,1.7,9.1c1,1.3,2.8,2,5.6,2c2.8,0,4.7-0.8,5.8-2.4c1.1-1.6,1.7-4.5,1.7-8.7
		C376.7,42.4,376.2,39.4,375.1,37.8z M385,27.9c0.5,0,0.8,0.3,0.8,0.8v38.5c0,1,0,2-0.1,2.8l0,0.7c-0.3,1.6-0.8,3.1-1.5,4.3
		c-0.5,1-1.3,2.1-2.3,3.2c-2.8,3.1-7.3,4.7-13.5,4.7c-4.8,0-8-0.4-9.6-1.3c-0.6-0.3-0.9-1-0.9-2.1v-4.9c0-0.5,0.3-0.7,0.8-0.7
		l3.5,0.4c2.2,0.3,3.9,0.4,5,0.4c3.8,0,6.4-0.9,7.8-2.7c0.8-1,1.3-2.6,1.6-4.8h0.2c0-0.3,0-0.7,0-1v-3.1c0-0.2-0.1-0.3-0.2-0.4
		c-0.2,0-0.3,0.1-0.4,0.3c-1.1,1.1-2.2,2-3.4,2.5c-1.4,0.6-3.2,0.9-5.3,0.9c-5.4,0-9.1-1.4-11.1-4.1c-2-2.8-3-7.9-3-15.4
		c0-7.2,0.9-12.1,2.6-14.9c2-3.2,5.9-4.8,11.6-4.8c2.8,0,5,0.3,6.6,1c1.3,0.5,2.5,1.5,3.6,2.9c0.3,0.4,0.5,0.6,0.7,0.6
		c0.1,0,0.3-0.2,0.5-0.6l1.2-2c0.6-0.9,1.3-1.4,2.1-1.4H385z"/>
	<path fill-rule="evenodd" clip-rule="evenodd" fill="#7D7D7D" d="M411.4,38c-0.9-1.5-2.6-2.3-5.1-2.3c-2.5,0-4.2,0.8-5.1,2.3
		c-1,1.7-1.5,5.2-1.5,10.5c0,5.3,0.5,8.9,1.5,10.6c0.8,1.5,2.5,2.3,5.1,2.3c2.5,0,4.2-0.8,5.1-2.3c0.9-1.7,1.4-5.3,1.4-10.6
		C412.8,43.2,412.4,39.7,411.4,38z M390.6,48.5c0-7.7,1-13.1,2.9-16c2.2-3.4,6.5-5.1,12.8-5.1c6.3,0,10.6,1.7,12.8,5.1
		c1.9,2.9,2.9,8.3,2.9,16c0,7.8-1,13.1-2.9,16.1c-2.3,3.4-6.5,5.2-12.8,5.2c-6.3,0-10.6-1.7-12.8-5.2
		C391.6,61.6,390.6,56.3,390.6,48.5z"/>
	<path fill-rule="evenodd" clip-rule="evenodd" fill="#9F9FA0" d="M432.8,58.1c0.8,0,1.2,0.4,1.2,1.1v9.5c0,0.7-0.4,1-1.2,1H426
		c-0.8,0-1.2-0.3-1.2-1v-9.5c0-0.7,0.4-1.1,1.2-1.1H432.8z"/>
	<path fill-rule="evenodd" clip-rule="evenodd" fill="#7D7D7D" d="M310.9,50.6c-2.8,0-4.5,0.3-5.2,0.8c-0.9,0.7-1.4,2.3-1.4,4.9
		c0,2.4,0.4,4,1.2,4.8c0.6,0.7,1.8,1,3.6,1c5.1,0,7.6-2.6,7.6-7.9v-2.9c0-0.5-0.3-0.8-0.8-0.8H310.9z M310.3,27.4
		c6.2,0,10.3,1.4,12.4,4.2c1.9,2.5,2.8,7.2,2.8,14.1v22.5c0,0.7-0.4,1-1.1,1h-2.1c-0.7,0-1.3-0.1-1.6-0.4c-0.3-0.2-0.7-0.8-1.2-1.6
		l-1.1-1.8l-0.2-0.2c-0.2,0-0.3,0.1-0.4,0.2c-2.1,2.8-5.4,4.3-10.1,4.3c-4.8,0-8-1.1-9.8-3.2c-1.6-2-2.5-5.4-2.5-10.3
		c0-4.7,0.9-7.9,2.6-9.8c1.9-2.1,5.5-3.1,10.8-3.1h6.6c0.8,0,1.2-0.4,1.2-1.1c0-2.9-0.6-4.8-1.7-5.7c-1.1-0.8-3.3-1.3-6.6-1.3
		c-2.6,0-4.8,0.2-6.7,0.7c-1.9,0.5-2.9,0.7-3,0.7c-0.4,0-0.7-0.1-0.9-0.3c-0.2-0.2-0.2-0.7-0.2-1.3v-3.6c0-1.4,0.6-2.3,1.7-2.8
		C301.1,27.9,304.8,27.4,310.3,27.4z"/>
	<path fill-rule="evenodd" clip-rule="evenodd" fill="#7D7D7D" d="M288.4,32c2.1,3.2,3.2,8.7,3.2,16.5c0,7.3-1.2,12.7-3.7,16.1
		c-2.4,3.4-6.2,5.2-11.4,5.2c-3.5,0-6.3-0.4-8.4-1.2c-2-0.7-3.6-1.9-4.9-3.5c-1.1-1.5-1.9-3.3-2.3-5.4c-0.4-1.9-0.6-4.7-0.6-8.3
		V14.7c0-0.5,0.3-0.8,0.9-0.8h7.4c0.5,0,0.8,0.3,0.8,0.8v13.7c0,0.4,0.1,0.6,0.3,0.6l2.4-0.8c1.7-0.6,3.6-0.9,5.8-0.9
		C282.9,27.4,286.4,28.9,288.4,32z M276.2,35.7c-3,0-4.9,0.8-5.8,2.3c-0.7,1.1-1.1,4-1.1,8.6v1.9c0,3.3,0.1,5.6,0.2,7
		c0.2,1.9,0.6,3.2,1.2,4c0.9,1.3,2.8,2,5.5,2c2.4,0,4-0.8,4.9-2.4c1.1-1.8,1.6-5.3,1.6-10.5c0-5.2-0.5-8.7-1.6-10.5
		C280.1,36.5,278.5,35.7,276.2,35.7z"/>
	<path fill-rule="evenodd" clip-rule="evenodd" fill="#7D7D7D" d="M351.8,29.2c0.2,0.4,0.3,1,0.3,2v3.5c0,0.9-0.5,1.4-1.4,1.4
		l-2.1-0.2c-1.3-0.1-2.6-0.2-3.9-0.2c-1.6,0-2.7,0.3-3.3,1c-0.6,0.6-0.9,1.9-0.9,3.8v27.7c0,0.7-0.4,1-1.2,1h-6.8
		c-0.7,0-1.1-0.3-1.1-1v-26c0-5.3,0.6-8.9,1.9-10.8c1.7-2.6,5.1-3.9,10.2-3.9c3.7,0,6,0.2,6.9,0.7C351.1,28.3,351.6,28.7,351.8,29.2
		z"/>
	<path fill-rule="evenodd" clip-rule="evenodd" fill="#7D7D7D" d="M230,32.5c0.4,0.4,0.6,0.4,0.7,0c1.8-3.4,5.2-5.1,10.4-5.1
		c5.4,0,9.1,1.3,11.1,3.9c1.6,2.1,2.5,5.7,2.5,10.8v26c0,0.7-0.4,1-1.2,1h-6.9c-0.8,0-1.1-0.3-1.1-1v-25c0-3.2-0.3-5.3-1-6.2
		c-0.6-0.9-2-1.3-4.3-1.3c-2.3,0-3.7,0.4-4.3,1.3c-0.6,0.9-1,2.9-1,6.2v25.2c0,0,0,0.1-0.1,0.2v0.2c0,0-0.1,0.1-0.1,0.2l-0.7,0.4
		H227c-0.8,0-1.2-0.3-1.2-1v-25c0-3.2-0.3-5.3-0.9-6.2c-0.6-0.9-2-1.3-4.2-1.3c-2.3,0-3.7,0.4-4.3,1.3c-0.7,0.9-1,2.9-1,6.2v25
		c0,0.7-0.4,1-1.2,1h-6.8c-0.8,0-1.1-0.3-1.1-1v-26c0-5.1,0.8-8.7,2.5-10.8c2-2.6,5.7-3.9,11-3.9C224.3,27.4,227.8,29.1,230,32.5z"
		/>
	<path fill-rule="evenodd" clip-rule="evenodd" fill="#7D7D7D" d="M154.3,27.4c6.2,0,10.4,1.3,12.7,3.9c1.9,2.1,2.8,5.7,2.8,10.8v26
		c0,0.7-0.4,1-1.1,1h-6.8c-0.8,0-1.2-0.3-1.2-1v-25c0-3.1-0.5-5.2-1.5-6.2c-0.8-0.9-2.5-1.3-4.9-1.3c-2.5,0-4.2,0.4-5.1,1.3
		c-1.1,1-1.6,3.1-1.6,6.2v25c0,0.7-0.4,1-1.1,1h-6.9c-0.7,0-1.1-0.3-1.1-1v-26c0-5.1,1-8.7,2.9-10.8
		C143.8,28.7,148.1,27.4,154.3,27.4z"/>
	<path fill-rule="evenodd" clip-rule="evenodd" fill="#7D7D7D" d="M181.8,43.2c0,0.7,0.3,1.1,1,1.1h11.1c0.7,0,1.1-0.3,1.1-1
		c0-3-0.6-5.1-1.7-6.2c-1-1-2.6-1.5-4.9-1.5c-2.3,0-4,0.5-4.9,1.5C182.3,38.2,181.8,40.2,181.8,43.2z M175.8,32.4
		c2.3-3.4,6.6-5,12.8-5c5.5,0,9.4,1.4,11.7,4.3c1.9,2.3,2.9,5.9,2.9,10.8c0,3.6-0.6,6.1-1.8,7.6c-1.3,1.5-3.6,2.3-7,2.3h-11.8
		c-0.6,0-0.9,0.3-0.9,0.8c0,3.1,0.7,5.3,2,6.6c1.3,1.2,3.5,1.9,6.5,1.9c2.5,0,4.8-0.1,7-0.4l2.8-0.4c0.6,0,0.9,0.3,0.9,0.9v4.8
		c0,0.9-0.3,1.5-1,1.7c-2.8,1-6.3,1.5-10.7,1.5c-6.5,0-10.9-1.7-13.3-5.2c-2.1-3-3.2-8.4-3.2-16.2C172.7,40.8,173.8,35.5,175.8,32.4
		z"/>
	<path fill-rule="evenodd" clip-rule="evenodd" fill="#7D7D7D" d="M125.4,27.9h6.8c0.8,0,1.2,0.4,1.2,1.1v39.2c0,0.7-0.4,1-1.2,1
		h-6.8c-0.7,0-1.1-0.3-1.1-1V29C124.3,28.3,124.7,27.9,125.4,27.9z"/>
	<path fill-rule="evenodd" clip-rule="evenodd" fill="#7D7D7D" d="M119.1,28.5c0.5,0.4,0.8,1.3,0.8,2.6v3.2c0,0.9-0.4,1.4-1.3,1.4
		c-0.2,0-1.1-0.1-2.8-0.3c-1.6-0.2-3.3-0.3-5-0.3c-2.4,0-4,0.2-4.8,0.7c-0.8,0.5-1.3,1.4-1.3,3c0,1.2,0.4,2.1,1.2,2.7
		c0.4,0.3,1.8,1,4.1,2.1l4.9,2.4c2.3,1.2,3.9,2.3,4.8,3.5c1.1,1.6,1.7,4,1.7,7.2c0,4.5-1.1,7.8-3.2,9.8c-2.4,2.2-6.4,3.3-12,3.3
		c-4.5,0-7.5-0.3-9-1c-0.5-0.2-0.9-0.5-1.1-0.9c-0.1-0.3-0.2-0.9-0.2-1.8v-4.5c0-0.7,0.3-1,1-1l3.1,0.5c2,0.3,4,0.4,6,0.4
		c2.5,0,4.2-0.3,5.1-0.9c0.9-0.6,1.3-1.7,1.3-3.3c0-1.3-0.3-2.3-1-3c-0.4-0.4-1.6-1-3.5-2l-4.5-2.1c-2.7-1.3-4.5-2.5-5.4-3.6
		c-1.5-1.8-2.3-4.4-2.3-7.9c0-4.3,1-7.3,3.1-9c2-1.6,5.6-2.4,10.8-2.4C114.8,27.4,118,27.8,119.1,28.5z"/>
	<g>
		<path fill-rule="evenodd" clip-rule="evenodd" fill="#FFFFFF" d="M57.1,66.1c-0.1,0-0.1,0-0.2,0c-0.1,0-0.2,0.1-0.3,0.2
			c0,0,0,0.1,0,0.1c-0.1,0.1-0.1,0.2-0.1,0.3c0,0.1,0,0.2,0.1,0.3h0.1c0,0.3-0.1,0.6-0.1,1.1c-0.1,0.4-0.1,1.2-0.2,2.2
			c-0.2,0.1-0.4,0.2-0.7,0.2c-0.1,0-0.2,0.1-0.3,0.1c0.1-1.4,0.2-2.3,0.3-2.7c0.1-1,0.2-1.6,0.3-1.8V66c0.1-0.3,0.2-1,0.4-2.2
			c0-0.2,0.1-0.5,0.1-0.8c0.2-1.5,0.6-2.6,1.2-3.3v-0.1c0.3-0.4,1.2-1.5,2.8-3.3c1.3-1.7,1.9-3,1.9-3.8c0-0.3,0-2.5,0.1-6.6
			c0-2.1,0-3.5-0.1-4.4c-1.6-0.3-3.3-0.6-5-0.9c-0.7-0.1-1.4-0.3-2-0.4l0-0.1c-2.5-0.5-4.1-1.1-4.7-1.6c-0.3-0.2-0.8-0.6-1.5-1.1
			c0,0,0-0.1-0.1-0.1h-0.1c-0.5-0.5-0.8-0.8-0.9-1h-0.1c0-0.1-0.1-0.1-0.2-0.1c-0.1,0.1-0.3,0.2-0.4,0.5c-0.3,0.8-0.4,1.6-0.2,2.4
			c0.3,2.1,1.1,3.8,2.5,5.1v0c0.4,0.3,0.7,0.7,1.2,1c0.6,0.5,1.3,0.9,1.8,1.2h0.1c0.5,0.3,1,0.4,1.5,0.4c0.1,0,0.2,0.1,0.3,0.2
			c0.1,0.1,0.1,0.2,0.1,0.3c0,0.1-0.1,0.2-0.2,0.3c-0.1,0.1-0.2,0.1-0.3,0.1c-0.5-0.1-1.1-0.2-1.6-0.5c-0.4,0.1-0.8,0.2-1.2,0.2
			c-0.8,0.1-1.5-0.4-2-1.4c-0.6,1-1.4,1.5-2.5,1.5c-1.4,0-2.5-0.4-3.1-1.3l-0.1,0.1c-0.4,0.5-1,0.8-1.6,1c-0.9,0.2-1.6,0.2-2.1-0.1
			c-0.5-0.3-0.9-0.8-1.1-1.6H39c-0.3-1.7-0.6-3.1-1-4.1c-0.6-1.8-1.1-2.8-1.6-2.9c-0.1,0-0.2,0-0.3-0.1c-0.1-0.1-0.1-0.2-0.1-0.3
			c0-0.1,0.1-0.2,0.2-0.4c0.1-0.1,0.1-0.1,0.3-0.1c0.9,0,1.7,1.1,2.5,3.5c0.4,1.1,0.7,2.5,1.1,4.2c0.1,0.5,0.4,0.9,0.7,1
			c0.4,0.1,0.8,0.1,1.4,0c0.4-0.2,0.8-0.4,1.2-0.7c0.1-0.2,0.3-0.4,0.3-0.5h0.1c0-0.2,0-0.3,0-0.5c-0.2-1.7-0.4-3.1-0.5-4.3
			c-0.4-2.1-0.8-3.8-1.4-5.2c-1.4-0.7-2.6-0.8-3.7-0.2c-0.8,0.4-1.5,1.1-2,2.1c-0.2,0.3-0.5,2.9-1,7.7c-0.2,2.4-0.5,4.9-0.7,7.3
			l-0.1,2.6c0,1.9,0.1,3.4,0.4,4.5v0.1c0.1,0.6,0.4,1.7,1.1,3.2c0.2,0.6,0.4,1.3,0.6,1.8c0.2,0.6,0.3,1.3,0.4,1.8L36.7,66
			c0-0.1-0.1-0.2-0.2-0.2c-0.1-0.1-0.1-0.1-0.2-0.1c0,0-0.1,0-0.1,0c-0.1,0-0.2,0.1-0.3,0.1c-0.1-0.5-0.2-1-0.3-1.4
			c-0.2-0.6-0.4-1.1-0.6-1.7c-0.6-1.6-0.9-2.7-1.1-3.4c-0.3-1.2-0.4-2.8-0.4-4.8l0.1-2.6c0.2-2.4,0.5-4.8,0.7-7.3
			c0.5-5,0.9-7.7,1.1-8.1c0.6-1.2,1.5-2,2.4-2.5c1.3-0.6,2.6-0.6,4.2,0.1c0.4-0.8,1.1-1.5,2.4-2c1.6-0.7,3-0.8,4.2-0.2
			c1-1.6,2.4-2.3,4.2-2.2c0.7,0,1.3,0.2,1.9,0.4c0-2-0.1-5.7-0.2-11c-0.1-1.5-0.1-2.3-0.1-2.5c-0.1-1-0.2-1.9-0.1-2.9
			c0.1-1.7,0.4-2.9,1-3.7c0.1-0.3,0.3-0.5,0.4-0.6c0.7-0.8,1.5-1.1,2.4-0.9c0.5,0.1,1.1,0.4,1.6,0.8c0.7,0.7,1.1,1.4,1.4,2.1
			c0.5,1.4,1.1,6.7,1.6,15.8c0.3,4.5,0.6,8.9,0.8,13.1c0,0.1,0.1,0.4,0.1,0.7c0.1,0.8,0.1,2.4,0,4.8c-0.1,4-0.1,6.2-0.1,6.5
			c0.1,1-0.7,2.5-2.2,4.4v0.1c-1.5,1.8-2.4,2.9-2.7,3.3c-0.5,0.6-0.8,1.6-1,2.9h-0.1c0,0.3-0.1,0.5-0.1,0.8c-0.2,1-0.3,1.7-0.4,2.1
			L57.1,66.1z M42.4,57c-0.1-0.1-0.1-0.1-0.1-0.3c-0.5-4.7,2.2-7.9,7.9-9.5c0.1-0.1,0.2-0.1,0.3,0c0.1,0.1,0.2,0.2,0.2,0.3
			c0,0.1,0,0.2-0.1,0.3c0,0.1-0.1,0.2-0.2,0.2c-5.1,1.5-7.5,4.3-7.2,8.5c0,0.1-0.1,0.2-0.2,0.3c-0.1,0.1-0.1,0.2-0.3,0.2
			C42.6,57.2,42.5,57.1,42.4,57z M47.9,35.4C47.9,35.4,47.9,35.4,47.9,35.4c0.4-0.1,0.7,0,1,0.3c-0.2-1.1-0.4-2-0.7-2.9
			c-1.1-0.5-2.3-0.5-3.7,0.2c-1.1,0.5-1.8,1.1-2,1.8c0.6,1.4,1.1,3.3,1.4,5.4c0.2,1.2,0.4,2.7,0.6,4.3c0,0.3,0,0.5-0.1,0.8
			c0.4,0.9,1.3,1.4,2.6,1.3c1-0.1,1.6-0.7,2-1.8c0,0,0,0,0.1-0.1c0,0,0-0.1,0-0.1c-1.4-1.5-2.2-3.3-2.6-5.4
			c-0.2-0.9-0.1-1.9,0.3-2.9c0,0,0,0,0-0.1C47.1,35.7,47.4,35.4,47.9,35.4z M54.6,31.1c-0.6-0.3-1.3-0.4-2-0.5
			c-1.5-0.1-2.7,0.6-3.5,2c0.4,1.2,0.6,2.5,0.9,4.1c0.6,0.5,1,0.9,1.4,1.1v0c0.5,0.4,1.8,0.8,3.9,1.3c0.2-1,0.3-1.7,0.3-2.2
			C55.6,35.4,55.3,33.4,54.6,31.1z M55.8,10.5L55.8,10.5c-0.5,0.8-0.8,1.9-0.9,3.4c0,0.9,0,1.8,0,2.7c0.1,0.2,0.1,1,0.2,2.5
			c0.1,5.9,0.2,9.8,0.2,11.6c0.8,2.4,1.1,4.5,1,6.2c0,0.5-0.1,1.3-0.3,2.4c0.5,0.1,1,0.2,1.6,0.4c1.6,0.3,3.2,0.6,4.8,0.8
			c0,0-0.1-0.1-0.1-0.1c-0.2-4.3-0.5-8.7-0.8-13.2c-0.6-8.9-1.1-14.1-1.6-15.5c-0.2-0.6-0.6-1.2-1.2-1.7c-0.4-0.3-0.7-0.5-1.1-0.6
			c-0.6-0.1-1.1,0.1-1.6,0.6C56,10.2,55.9,10.3,55.8,10.5z M58.4,73.6l0.2,0.1c0,0,0,0.1,0,0.1c0,0.1-0.1,0.2-0.2,0.3
			C58.4,74,58.4,73.8,58.4,73.6z M35.6,69.8c0.2-1.2,0.2-2.2,0.2-3.1c0.1-0.1,0.3-0.1,0.5-0.2c0.1,0,0.2-0.1,0.3-0.2
			c0-0.1,0.1-0.1,0.1-0.2c0,0.1,0.1,0.1,0.1,0.2v0.1c0,1-0.1,2.3-0.3,3.9c-0.1-0.1-0.2-0.1-0.3-0.1C36,70.1,35.8,70,35.6,69.8z
			 M33,72c0.2-0.2,0.4-0.4,0.8-0.6c0,0.4,0,1-0.1,1.7c0,0.2,0,0.4,0,0.6c-0.2-0.2-0.4-0.5-0.6-0.7v-0.1h0c-0.1-0.2-0.1-0.3-0.1-0.4
			v0C32.9,72.3,32.9,72.1,33,72z"/>
		<path fill-rule="evenodd" clip-rule="evenodd" fill="#E81337" d="M36.5,70.4c0.2-1.6,0.3-2.9,0.3-3.9v-0.1c0-0.1,0-0.2-0.1-0.2
			v-0.1c-0.1-0.6-0.2-1.2-0.4-1.8c-0.2-0.6-0.4-1.2-0.6-1.8c-0.6-1.5-1-2.6-1.1-3.2v-0.1c-0.3-1.1-0.4-2.6-0.4-4.5l0.1-2.6
			c0.3-2.4,0.5-4.8,0.7-7.3c0.5-4.8,0.8-7.3,1-7.7c0.5-1,1.2-1.7,2-2.1c1.1-0.5,2.3-0.4,3.7,0.2c0.6,1.4,1,3.1,1.4,5.2
			c0.2,1.2,0.3,2.6,0.5,4.3c0,0.2,0,0.3,0,0.5h-0.1c-0.1,0.1-0.2,0.3-0.3,0.5c-0.3,0.3-0.7,0.6-1.2,0.7c-0.6,0.1-1,0.1-1.4,0
			c-0.3-0.2-0.6-0.5-0.7-1c-0.4-1.7-0.7-3.1-1.1-4.2c-0.7-2.4-1.6-3.5-2.5-3.5c-0.1,0-0.2,0.1-0.3,0.1C36,38,36,38.1,35.9,38.2
			c0,0.1,0,0.2,0.1,0.3c0.1,0.1,0.2,0.1,0.3,0.1c0.5,0.1,1.1,1.1,1.6,2.9c0.4,1.1,0.7,2.4,1,4.1h0.1c0.2,0.8,0.6,1.4,1.1,1.6
			c0.5,0.3,1.2,0.3,2.1,0.1c0.6-0.2,1.2-0.5,1.6-1l0.1-0.1c0.6,0.9,1.6,1.3,3.1,1.3c1.1,0,1.9-0.5,2.5-1.5c0.5,1,1.2,1.5,2,1.4
			c0.5,0,0.9-0.1,1.2-0.2c0.6,0.3,1.1,0.4,1.6,0.5c0.1,0,0.2,0,0.3-0.1c0.1-0.1,0.2-0.1,0.2-0.3c0-0.1,0-0.2-0.1-0.3
			c-0.1-0.1-0.2-0.2-0.3-0.2c-0.5,0-1-0.2-1.5-0.4h-0.1c-0.6-0.3-1.2-0.6-1.8-1.2c-0.4-0.3-0.8-0.6-1.2-1v0
			c-1.4-1.4-2.2-3.1-2.5-5.1c-0.2-0.8-0.1-1.6,0.2-2.4c0.1-0.2,0.3-0.4,0.4-0.5c0.1,0,0.1,0,0.2,0.1h0.1c0.1,0.2,0.4,0.5,0.9,1h0.1
			c0,0.1,0.1,0.1,0.1,0.1c0.7,0.6,1.2,1,1.5,1.1c0.6,0.5,2.2,1,4.7,1.6l0,0.1c0.6,0.1,1.3,0.3,2,0.4c1.7,0.3,3.4,0.6,5,0.9
			c0.1,0.9,0.1,2.3,0.1,4.4c-0.1,4.1-0.1,6.3-0.1,6.6c0,0.8-0.6,2.1-1.9,3.8c-1.6,1.9-2.5,3-2.8,3.3v0.1c-0.6,0.7-0.9,1.8-1.2,3.3
			c0,0.3-0.1,0.6-0.1,0.8c-0.2,1.2-0.3,2-0.4,2.2v0.1c-0.1,0.2-0.2,0.8-0.3,1.8c-0.1,0.5-0.1,1.4-0.3,2.7c-0.7,0.2-1.6,0.4-2.6,0.6
			c-2,0.4-4.2,0.6-6.6,0.6C41.7,71.8,38.5,71.4,36.5,70.4z M53.1,72.1c1.1-0.2,2.1-0.4,2.9-0.7l0.1-0.1c0.6-0.2,1-0.4,1.4-0.7
			c0.1-0.1,0.3-0.1,0.4-0.2L57.8,71c0,0.6-0.1,1.2-0.1,1.6c0,0,0,0.1,0,0.1c-0.1,0.8-0.2,1.5-0.3,1.9c-0.8,0.3-1.9,0.6-3.5,0.9
			c-2.1,0.4-4.2,0.7-6.4,0.8c-5.7,0.4-10-0.3-13-2c0-0.2,0-0.6,0-1.2c0.1-1.2,0.1-2,0.1-2.4v-0.1l0.1-0.5c0.2,0.2,0.6,0.4,0.9,0.7
			h0.1c2.1,1.2,5.6,1.8,10.6,1.7C48.7,72.6,50.9,72.4,53.1,72.1L53.1,72.1z M56.7,66.9c0.4,0.3,0.6,0.6,0.9,0.9
			c0.3,0.4,0.4,0.7,0.3,1.1c0,0,0,0.1,0,0.1c-0.1,0.4-0.4,0.7-0.9,0.9h0c-0.2,0.1-0.4,0.3-0.6,0.4c0.1-1.1,0.2-1.8,0.2-2.2
			C56.6,67.5,56.7,67.2,56.7,66.9z M55.8,10.5c0.1-0.2,0.2-0.3,0.3-0.4c0.5-0.5,1-0.7,1.6-0.6c0.4,0.1,0.8,0.3,1.1,0.6
			c0.6,0.6,1,1.2,1.2,1.7c0.5,1.4,1.1,6.6,1.6,15.5c0.3,4.5,0.6,8.9,0.8,13.2c0,0,0,0.1,0.1,0.1c-1.6-0.3-3.1-0.5-4.8-0.8
			c-0.6-0.2-1.1-0.3-1.6-0.4c0.2-1.1,0.3-1.9,0.3-2.4c0.1-1.7-0.2-3.8-1-6.2c0-1.8-0.1-5.7-0.2-11.6c-0.1-1.5-0.1-2.3-0.2-2.5
			c-0.1-0.9-0.1-1.8,0-2.7C55,12.4,55.3,11.3,55.8,10.5L55.8,10.5z M54.6,31.1c0.7,2.3,1,4.2,0.9,5.8c0,0.5-0.1,1.2-0.3,2.2
			c-2.1-0.5-3.3-0.9-3.9-1.3v0c-0.3-0.2-0.8-0.6-1.4-1.1c-0.2-1.6-0.5-3-0.9-4.1c0.8-1.4,2-2.1,3.5-2C53.3,30.7,54,30.9,54.6,31.1z
			 M47.9,35.4c-0.4,0-0.8,0.3-1.2,0.9c0,0,0,0.1,0,0.1c-0.4,1-0.4,1.9-0.3,2.9c0.4,2.1,1.2,3.9,2.6,5.4c0,0,0,0.1,0,0.1
			c0,0-0.1,0.1-0.1,0.1c-0.4,1.1-1,1.7-2,1.8c-1.3,0.1-2.1-0.4-2.6-1.3c0.1-0.3,0.1-0.5,0.1-0.8c-0.2-1.6-0.4-3.1-0.6-4.3
			c-0.4-2.2-0.8-4-1.4-5.4c0.2-0.6,0.9-1.2,2-1.8c1.3-0.6,2.6-0.7,3.7-0.2c0.3,0.8,0.5,1.8,0.7,2.9C48.6,35.5,48.3,35.3,47.9,35.4
			C47.9,35.4,47.9,35.4,47.9,35.4z M42.4,57c0.1,0.1,0.2,0.1,0.3,0.1c0.1,0,0.2-0.1,0.3-0.2c0.1-0.1,0.2-0.2,0.2-0.3
			c-0.4-4.2,2-7,7.2-8.5c0.1,0,0.2-0.1,0.2-0.2c0.1-0.1,0.1-0.2,0.1-0.3c0-0.1-0.1-0.2-0.2-0.3c-0.1-0.1-0.2-0.1-0.3,0
			c-5.7,1.6-8.3,4.8-7.9,9.5C42.3,56.9,42.3,57,42.4,57z M35.8,66.8c0,0.8-0.1,1.9-0.2,3.1c-0.2-0.1-0.3-0.2-0.4-0.4v0
			c-0.3-0.2-0.4-0.5-0.4-0.9c0,0,0-0.1,0-0.1v-0.1c0-0.1,0-0.2,0-0.3C34.9,67.5,35.2,67.1,35.8,66.8z M34.6,81c-0.1,0-0.2,0-0.2-0.1
			c0-0.1-0.1-0.1-0.1-0.2c0-0.2,0.1-0.3,0.4-0.4c0.5-0.1,0.8-0.3,1.1-0.4c-0.3-0.1-0.6-0.2-1.1-0.3c-0.3-0.1-0.4-0.2-0.4-0.4
			c0-0.1,0-0.2,0.1-0.2c0,0,0.1,0,0.2,0c0.1,0,0.3,0.1,0.4,0.3c0.2,0.2,0.5,0.4,0.8,0.6v-0.1c0-0.3,0-0.5-0.1-0.7
			c-0.1-0.2-0.1-0.4-0.1-0.5c0-0.1,0-0.2,0.1-0.3c0.1,0,0.1-0.1,0.2-0.1c0.1,0,0.2,0,0.2,0.1c0.1,0.1,0.1,0.2,0.1,0.2
			c0,0.1,0,0.2-0.1,0.5C36,79.1,36,79.4,36,79.7c0.2-0.2,0.4-0.3,0.4-0.3c0-0.1,0.1-0.1,0.2-0.2c0.2-0.2,0.3-0.3,0.4-0.4
			c0.1,0,0.2-0.1,0.2-0.1c0.1,0,0.1,0,0.2,0c0.1,0.1,0.1,0.2,0.1,0.2c0,0.2-0.1,0.3-0.4,0.4c-0.5,0.1-0.8,0.3-1,0.4l0.1,0.1
			c0.2,0.1,0.6,0.2,1,0.3c0.3,0,0.4,0.1,0.4,0.3c0,0.1,0,0.2-0.1,0.2c-0.1,0.1-0.2,0.1-0.2,0.1c-0.1,0-0.3-0.1-0.5-0.4
			c-0.2-0.2-0.4-0.4-0.6-0.5H36V80c0,0.4,0,0.6,0.1,0.9c0.1,0.2,0.1,0.4,0.1,0.4c0,0.1,0,0.2-0.1,0.2c0,0.1-0.1,0.1-0.2,0.1
			c-0.1,0-0.2,0-0.3-0.1c0-0.1-0.1-0.2-0.1-0.2c0,0,0-0.2,0.1-0.6c0.1-0.3,0.1-0.6,0.1-0.7L35.8,80c-0.2,0.2-0.5,0.4-0.7,0.6
			C34.9,80.9,34.7,81,34.6,81z"/>
		<path fill-rule="evenodd" clip-rule="evenodd" fill="#FFFFFF" d="M56.7,66.9L56.7,66.9c-0.1-0.1-0.2-0.2-0.2-0.3
			c0-0.1,0-0.2,0.1-0.3c0,0,0,0,0-0.1c0.1-0.1,0.2-0.2,0.3-0.2c0.1,0,0.1,0,0.2,0c0,0,0.1,0,0.1,0.1h0l0.1,0.1
			c0.4,0.3,0.8,0.7,1.1,1.1c0.5,0.6,0.6,1.2,0.4,1.8l-0.1,2c0,0.6-0.1,1.1-0.1,1.6l0.7,0.4c0,0,0.1,0,0.1,0.1
			c0.2,0.3,0.3,0.6,0.2,0.9c-0.1,6.2-0.3,9.7-0.6,10.7c0,1-1.4,1.8-4.1,2.4c-2.3,0.5-5.1,0.8-8.3,0.9c-3.4,0.1-6.4-0.1-9.1-0.5
			c-2-0.3-3.5-0.8-4.5-1.3c-0.6-0.4-1.1-0.7-1.4-1.1c0-0.1-0.1-0.1-0.1-0.2c-0.1-0.2,0-1.1,0.1-2.6c0.1-1.7,0.2-2.9,0.2-3.5
			c0.2-2.9,0.3-5,0.5-6.4c0-0.3,0.1-0.6,0.2-0.9c0.3-0.4,0.8-0.7,1.6-1v-1.8c0-0.1,0-0.1,0-0.2c0-0.1,0-0.3,0-0.5
			c0.2-0.9,0.8-1.6,1.9-2c0.1-0.1,0.2-0.1,0.3-0.1c0,0,0.1,0,0.1,0c0.1,0,0.2,0,0.2,0.1c0.1,0.1,0.2,0.1,0.2,0.2l0.1,0.1v0.1
			c0,0.1,0,0.1-0.1,0.2c-0.1,0.1-0.1,0.2-0.3,0.2c-0.2,0.1-0.4,0.1-0.5,0.2c-0.6,0.3-1,0.8-1.1,1.3c0,0.1,0,0.2,0,0.3v0.1
			c0,0.1,0,0.1,0,0.1c0,0.4,0.2,0.7,0.4,0.9v0c0.1,0.1,0.3,0.2,0.4,0.4c0.2,0.1,0.4,0.3,0.6,0.4c0.1,0,0.2,0.1,0.3,0.1
			c2,1,5.3,1.5,9.9,1.4c2.3-0.1,4.5-0.3,6.6-0.6c1-0.1,1.9-0.3,2.6-0.6c0.1,0,0.2,0,0.3-0.1c0.3-0.1,0.5-0.2,0.7-0.2
			c0.2-0.1,0.4-0.3,0.6-0.4h0c0.5-0.3,0.8-0.6,0.9-0.9c0,0,0-0.1,0-0.1c0.1-0.3,0-0.7-0.3-1.1C57.4,67.5,57.1,67.2,56.7,66.9z
			 M53.1,72.1L53.1,72.1c-2.1,0.4-4.3,0.6-6.7,0.6c-5,0.1-8.5-0.5-10.6-1.7h-0.1c-0.4-0.2-0.7-0.4-0.9-0.7l-0.1,0.5v0.1
			c0,0.4,0,1.2-0.1,2.4c0,0.6,0,1,0,1.2c2.9,1.7,7.2,2.4,13,2c2.1-0.1,4.3-0.4,6.4-0.8c1.6-0.3,2.7-0.6,3.5-0.9
			c0.1-0.4,0.2-1,0.3-1.9c0,0,0-0.1,0-0.1c0.1-0.5,0.1-1,0.1-1.6l0.1-0.6c-0.1,0.1-0.3,0.2-0.4,0.2c-0.4,0.2-0.8,0.4-1.4,0.7
			l-0.1,0.1C55.2,71.7,54.2,71.9,53.1,72.1z M58.4,73.6c0,0.2,0,0.4,0,0.5c0.1-0.1,0.2-0.2,0.2-0.3c0,0,0-0.1,0-0.1L58.4,73.6z
			 M33,72c0,0.1-0.1,0.3-0.1,0.4v0c0,0.1,0,0.3,0.1,0.4h0V73c0.2,0.3,0.4,0.5,0.6,0.7c0-0.2,0-0.4,0-0.6c0.1-0.7,0.1-1.3,0.1-1.7
			C33.4,71.6,33.2,71.8,33,72z M34.6,81c0.1,0,0.3-0.1,0.5-0.3c0.2-0.3,0.5-0.5,0.7-0.6l0.1,0.1c0,0.2,0,0.4-0.1,0.7
			c-0.1,0.4-0.1,0.5-0.1,0.6c0,0.1,0,0.2,0.1,0.2c0.1,0.1,0.2,0.1,0.3,0.1c0.1,0,0.2,0,0.2-0.1c0.1-0.1,0.1-0.2,0.1-0.2
			c0-0.1,0-0.2-0.1-0.4C36,80.7,36,80.4,36,80V80h0.1c0.2,0.1,0.4,0.3,0.6,0.5c0.2,0.3,0.3,0.4,0.5,0.4c0.1,0,0.2,0,0.2-0.1
			c0.1-0.1,0.1-0.2,0.1-0.2c0-0.2-0.1-0.3-0.4-0.3c-0.4-0.1-0.8-0.2-1-0.3l-0.1-0.1c0.2-0.2,0.6-0.3,1-0.4c0.3-0.1,0.4-0.2,0.4-0.4
			c0-0.1,0-0.1-0.1-0.2c-0.1,0-0.1,0-0.2,0c-0.1,0-0.2,0-0.2,0.1c0,0-0.1,0.1-0.4,0.4c-0.1,0.1-0.1,0.1-0.2,0.2
			c-0.1,0-0.2,0.1-0.4,0.3c0-0.4,0-0.6,0.1-0.9c0.1-0.3,0.1-0.4,0.1-0.5c0-0.1,0-0.2-0.1-0.2C36,78,36,78,35.9,78
			c-0.1,0-0.2,0-0.2,0.1c-0.1,0.1-0.1,0.1-0.1,0.3c0,0.1,0,0.3,0.1,0.5c0,0.2,0.1,0.5,0.1,0.7v0.1c-0.3-0.2-0.6-0.4-0.8-0.6
			c-0.1-0.2-0.3-0.3-0.4-0.3c-0.1,0-0.2,0-0.2,0c-0.1,0.1-0.1,0.2-0.1,0.2c0,0.2,0.1,0.3,0.4,0.4c0.5,0.1,0.9,0.2,1.1,0.3
			c-0.2,0.2-0.6,0.3-1.1,0.4c-0.3,0.1-0.4,0.2-0.4,0.4c0,0.1,0,0.1,0.1,0.2C34.4,80.9,34.5,81,34.6,81z"/>
	</g>
</g>
</svg>
